<mxfile host="www.draw.io" modified="2020-02-11T03:04:35.815Z" agent="Mozilla/5.0 (Windows NT 10.0; Win64; x64) AppleWebKit/537.36 (KHTML, like Gecko) Chrome/79.0.3945.130 Safari/537.36" etag="_EyTY_jE3cfXY6bYmAyZ" version="12.6.7" type="github">
  <diagram id="C5RBs43oDa-KdzZeNtuy" name="Page-1">
    <mxGraphModel dx="1022" dy="388" grid="1" gridSize="10" guides="1" tooltips="1" connect="1" arrows="1" fold="1" page="1" pageScale="1" pageWidth="827" pageHeight="1169" math="0" shadow="0">
      <root>
        <mxCell id="WIyWlLk6GJQsqaUBKTNV-0"/>
        <mxCell id="WIyWlLk6GJQsqaUBKTNV-1" parent="WIyWlLk6GJQsqaUBKTNV-0"/>
        <mxCell id="WIyWlLk6GJQsqaUBKTNV-2" value="" style="rounded=0;html=1;jettySize=auto;orthogonalLoop=1;fontSize=11;endArrow=block;endFill=0;endSize=8;strokeWidth=1;shadow=0;labelBackgroundColor=none;edgeStyle=orthogonalEdgeStyle;" parent="WIyWlLk6GJQsqaUBKTNV-1" source="FPXWM-zQWJSh7Ym-sCVf-0" edge="1">
          <mxGeometry relative="1" as="geometry">
            <mxPoint x="220.00000000000023" y="140.0000000000001" as="targetPoint"/>
          </mxGeometry>
        </mxCell>
        <mxCell id="WIyWlLk6GJQsqaUBKTNV-3" value="User Input: f, and g" style="rounded=1;whiteSpace=wrap;html=1;fontSize=12;glass=0;strokeWidth=1;shadow=0;" parent="WIyWlLk6GJQsqaUBKTNV-1" vertex="1">
          <mxGeometry x="160" width="120" height="40" as="geometry"/>
        </mxCell>
        <mxCell id="WIyWlLk6GJQsqaUBKTNV-7" value="Loop 1:" style="rounded=1;whiteSpace=wrap;html=1;fontSize=12;glass=0;strokeWidth=1;shadow=0;" parent="WIyWlLk6GJQsqaUBKTNV-1" vertex="1">
          <mxGeometry x="400" y="350" width="120" height="40" as="geometry"/>
        </mxCell>
        <mxCell id="7ej-nBAIV5by-r2BY7kF-0" value="" style="endArrow=classic;html=1;exitX=0.5;exitY=1;exitDx=0;exitDy=0;" parent="WIyWlLk6GJQsqaUBKTNV-1" source="WIyWlLk6GJQsqaUBKTNV-7" target="7ej-nBAIV5by-r2BY7kF-1" edge="1">
          <mxGeometry width="50" height="50" relative="1" as="geometry">
            <mxPoint x="37.5" y="510" as="sourcePoint"/>
            <mxPoint x="297.5" y="430" as="targetPoint"/>
          </mxGeometry>
        </mxCell>
        <mxCell id="7ej-nBAIV5by-r2BY7kF-1" value="if g&amp;gt; f-dynamic&amp;nbsp;&lt;br&gt;break loop" style="rounded=1;whiteSpace=wrap;html=1;" parent="WIyWlLk6GJQsqaUBKTNV-1" vertex="1">
          <mxGeometry x="402.5" y="425" width="120" height="70" as="geometry"/>
        </mxCell>
        <mxCell id="7ej-nBAIV5by-r2BY7kF-6" value="g-=f-dynamic" style="rounded=0;whiteSpace=wrap;html=1;" parent="WIyWlLk6GJQsqaUBKTNV-1" vertex="1">
          <mxGeometry x="582.5" y="425" width="120" height="60" as="geometry"/>
        </mxCell>
        <mxCell id="7ej-nBAIV5by-r2BY7kF-7" value="" style="endArrow=classic;html=1;exitX=0.5;exitY=1;exitDx=0;exitDy=0;" parent="WIyWlLk6GJQsqaUBKTNV-1" source="7ej-nBAIV5by-r2BY7kF-6" target="7ej-nBAIV5by-r2BY7kF-8" edge="1">
          <mxGeometry width="50" height="50" relative="1" as="geometry">
            <mxPoint x="560" y="520" as="sourcePoint"/>
            <mxPoint x="580" y="520" as="targetPoint"/>
          </mxGeometry>
        </mxCell>
        <mxCell id="7ej-nBAIV5by-r2BY7kF-8" value="i-quotient++" style="rounded=1;whiteSpace=wrap;html=1;" parent="WIyWlLk6GJQsqaUBKTNV-1" vertex="1">
          <mxGeometry x="582.5" y="520" width="120" height="60" as="geometry"/>
        </mxCell>
        <mxCell id="7ej-nBAIV5by-r2BY7kF-9" value="" style="endArrow=classic;html=1;exitX=0;exitY=0.5;exitDx=0;exitDy=0;entryX=1;entryY=0.75;entryDx=0;entryDy=0;" parent="WIyWlLk6GJQsqaUBKTNV-1" source="7ej-nBAIV5by-r2BY7kF-8" target="7ej-nBAIV5by-r2BY7kF-1" edge="1">
          <mxGeometry width="50" height="50" relative="1" as="geometry">
            <mxPoint x="220" y="690" as="sourcePoint"/>
            <mxPoint x="270" y="640" as="targetPoint"/>
            <Array as="points">
              <mxPoint x="500" y="480"/>
            </Array>
          </mxGeometry>
        </mxCell>
        <mxCell id="7ej-nBAIV5by-r2BY7kF-20" value="NO&lt;br&gt;" style="endArrow=classic;html=1;exitX=1;exitY=0.5;exitDx=0;exitDy=0;entryX=0;entryY=0.5;entryDx=0;entryDy=0;" parent="WIyWlLk6GJQsqaUBKTNV-1" source="7ej-nBAIV5by-r2BY7kF-1" target="7ej-nBAIV5by-r2BY7kF-6" edge="1">
          <mxGeometry x="-0.0759" y="3" width="50" height="50" relative="1" as="geometry">
            <mxPoint x="370" y="650" as="sourcePoint"/>
            <mxPoint x="420" y="600" as="targetPoint"/>
            <Array as="points"/>
            <mxPoint as="offset"/>
          </mxGeometry>
        </mxCell>
        <mxCell id="7ej-nBAIV5by-r2BY7kF-21" value="YES: goto loop2" style="endArrow=classic;html=1;exitX=0.5;exitY=1;exitDx=0;exitDy=0;" parent="WIyWlLk6GJQsqaUBKTNV-1" source="7ej-nBAIV5by-r2BY7kF-1" edge="1">
          <mxGeometry width="50" height="50" relative="1" as="geometry">
            <mxPoint x="300" y="650" as="sourcePoint"/>
            <mxPoint x="463" y="540" as="targetPoint"/>
            <Array as="points">
              <mxPoint x="463" y="510"/>
            </Array>
          </mxGeometry>
        </mxCell>
        <mxCell id="7ej-nBAIV5by-r2BY7kF-23" value="Loop2:&lt;br&gt;(f-g)--&amp;gt; store in register" style="rounded=1;whiteSpace=wrap;html=1;fontSize=12;glass=0;strokeWidth=1;shadow=0;" parent="WIyWlLk6GJQsqaUBKTNV-1" vertex="1">
          <mxGeometry x="10" y="472.5" width="120" height="40" as="geometry"/>
        </mxCell>
        <mxCell id="7ej-nBAIV5by-r2BY7kF-25" value="if i-quotient &amp;gt; (f-g)&lt;br&gt;break" style="rounded=1;whiteSpace=wrap;html=1;" parent="WIyWlLk6GJQsqaUBKTNV-1" vertex="1">
          <mxGeometry x="10" y="547.5" width="120" height="70" as="geometry"/>
        </mxCell>
        <mxCell id="7ej-nBAIV5by-r2BY7kF-26" value="(f-g)= (f-g) - Iquotient" style="rounded=0;whiteSpace=wrap;html=1;" parent="WIyWlLk6GJQsqaUBKTNV-1" vertex="1">
          <mxGeometry x="190" y="545" width="120" height="60" as="geometry"/>
        </mxCell>
        <mxCell id="7ej-nBAIV5by-r2BY7kF-27" value="" style="endArrow=classic;html=1;exitX=0.5;exitY=1;exitDx=0;exitDy=0;" parent="WIyWlLk6GJQsqaUBKTNV-1" source="7ej-nBAIV5by-r2BY7kF-26" edge="1">
          <mxGeometry width="50" height="50" relative="1" as="geometry">
            <mxPoint x="167.5" y="640" as="sourcePoint"/>
            <mxPoint x="250" y="640" as="targetPoint"/>
          </mxGeometry>
        </mxCell>
        <mxCell id="7ej-nBAIV5by-r2BY7kF-28" value="" style="endArrow=classic;html=1;exitX=0;exitY=0.5;exitDx=0;exitDy=0;entryX=1;entryY=0.75;entryDx=0;entryDy=0;" parent="WIyWlLk6GJQsqaUBKTNV-1" edge="1">
          <mxGeometry width="50" height="50" relative="1" as="geometry">
            <mxPoint x="190" y="670" as="sourcePoint"/>
            <mxPoint x="130" y="597.5" as="targetPoint"/>
            <Array as="points">
              <mxPoint x="107.5" y="600"/>
            </Array>
          </mxGeometry>
        </mxCell>
        <mxCell id="7ej-nBAIV5by-r2BY7kF-29" value="NO" style="endArrow=classic;html=1;exitX=1;exitY=0.5;exitDx=0;exitDy=0;entryX=0;entryY=0.5;entryDx=0;entryDy=0;" parent="WIyWlLk6GJQsqaUBKTNV-1" target="7ej-nBAIV5by-r2BY7kF-26" edge="1">
          <mxGeometry width="50" height="50" relative="1" as="geometry">
            <mxPoint x="130" y="580" as="sourcePoint"/>
            <mxPoint x="27.5" y="720" as="targetPoint"/>
          </mxGeometry>
        </mxCell>
        <mxCell id="7ej-nBAIV5by-r2BY7kF-30" value="YES&lt;br&gt;&lt;br&gt;" style="endArrow=classic;html=1;exitX=0.5;exitY=1;exitDx=0;exitDy=0;entryX=0.194;entryY=-0.019;entryDx=0;entryDy=0;entryPerimeter=0;" parent="WIyWlLk6GJQsqaUBKTNV-1" target="7ej-nBAIV5by-r2BY7kF-39" edge="1">
          <mxGeometry width="50" height="50" relative="1" as="geometry">
            <mxPoint x="70" y="615" as="sourcePoint"/>
            <mxPoint x="368.57142857142867" y="760" as="targetPoint"/>
            <Array as="points">
              <mxPoint x="70.5" y="630"/>
              <mxPoint x="71" y="720"/>
              <mxPoint x="240" y="720"/>
              <mxPoint x="400" y="720"/>
            </Array>
          </mxGeometry>
        </mxCell>
        <mxCell id="7ej-nBAIV5by-r2BY7kF-31" value="" style="endArrow=classic;html=1;exitX=0.5;exitY=1;exitDx=0;exitDy=0;entryX=0.5;entryY=0;entryDx=0;entryDy=0;" parent="WIyWlLk6GJQsqaUBKTNV-1" edge="1">
          <mxGeometry width="50" height="50" relative="1" as="geometry">
            <mxPoint x="70" y="510" as="sourcePoint"/>
            <mxPoint x="70" y="545" as="targetPoint"/>
          </mxGeometry>
        </mxCell>
        <mxCell id="7ej-nBAIV5by-r2BY7kF-32" value="Increment JQuotient" style="rounded=1;whiteSpace=wrap;html=1;" parent="WIyWlLk6GJQsqaUBKTNV-1" vertex="1">
          <mxGeometry x="190" y="640" width="120" height="60" as="geometry"/>
        </mxCell>
        <mxCell id="7ej-nBAIV5by-r2BY7kF-36" value="" style="endArrow=classic;html=1;entryX=0.85;entryY=-0.036;entryDx=0;entryDy=0;entryPerimeter=0;" parent="WIyWlLk6GJQsqaUBKTNV-1" target="7ej-nBAIV5by-r2BY7kF-39" edge="1">
          <mxGeometry width="50" height="50" relative="1" as="geometry">
            <mxPoint x="390" y="720" as="sourcePoint"/>
            <mxPoint x="470" y="764" as="targetPoint"/>
          </mxGeometry>
        </mxCell>
        <mxCell id="7ej-nBAIV5by-r2BY7kF-39" value="Print out inputs and outputs&lt;br&gt;" style="rounded=1;whiteSpace=wrap;html=1;" parent="WIyWlLk6GJQsqaUBKTNV-1" vertex="1">
          <mxGeometry x="350" y="760" width="120" height="60" as="geometry"/>
        </mxCell>
        <mxCell id="mFxCMQZOIhEKqkH4UFLB-3" value="" style="edgeStyle=orthogonalEdgeStyle;rounded=0;orthogonalLoop=1;jettySize=auto;html=1;" parent="WIyWlLk6GJQsqaUBKTNV-1" source="mFxCMQZOIhEKqkH4UFLB-1" target="mFxCMQZOIhEKqkH4UFLB-2" edge="1">
          <mxGeometry relative="1" as="geometry"/>
        </mxCell>
        <mxCell id="mFxCMQZOIhEKqkH4UFLB-7" value="" style="edgeStyle=orthogonalEdgeStyle;rounded=0;orthogonalLoop=1;jettySize=auto;html=1;" parent="WIyWlLk6GJQsqaUBKTNV-1" source="mFxCMQZOIhEKqkH4UFLB-1" target="mFxCMQZOIhEKqkH4UFLB-6" edge="1">
          <mxGeometry relative="1" as="geometry"/>
        </mxCell>
        <mxCell id="mFxCMQZOIhEKqkH4UFLB-1" value="Error Checking:" style="rounded=1;whiteSpace=wrap;html=1;" parent="WIyWlLk6GJQsqaUBKTNV-1" vertex="1">
          <mxGeometry x="165" y="140" width="120" height="60" as="geometry"/>
        </mxCell>
        <mxCell id="mFxCMQZOIhEKqkH4UFLB-15" value="" style="edgeStyle=orthogonalEdgeStyle;rounded=0;orthogonalLoop=1;jettySize=auto;html=1;" parent="WIyWlLk6GJQsqaUBKTNV-1" source="mFxCMQZOIhEKqkH4UFLB-6" target="mFxCMQZOIhEKqkH4UFLB-14" edge="1">
          <mxGeometry relative="1" as="geometry"/>
        </mxCell>
        <mxCell id="mFxCMQZOIhEKqkH4UFLB-6" value="Initialize I and J quotient to 0" style="rounded=1;whiteSpace=wrap;html=1;" parent="WIyWlLk6GJQsqaUBKTNV-1" vertex="1">
          <mxGeometry x="165" y="230" width="120" height="60" as="geometry"/>
        </mxCell>
        <mxCell id="mFxCMQZOIhEKqkH4UFLB-17" value="" style="edgeStyle=orthogonalEdgeStyle;rounded=0;orthogonalLoop=1;jettySize=auto;html=1;" parent="WIyWlLk6GJQsqaUBKTNV-1" source="mFxCMQZOIhEKqkH4UFLB-14" edge="1">
          <mxGeometry relative="1" as="geometry">
            <mxPoint x="225" y="380" as="targetPoint"/>
          </mxGeometry>
        </mxCell>
        <mxCell id="mFxCMQZOIhEKqkH4UFLB-14" value="Initialize f and g static variables in other registers for loop implementation&lt;br&gt;" style="rounded=1;whiteSpace=wrap;html=1;" parent="WIyWlLk6GJQsqaUBKTNV-1" vertex="1">
          <mxGeometry x="165" y="310" width="120" height="60" as="geometry"/>
        </mxCell>
        <mxCell id="mFxCMQZOIhEKqkH4UFLB-20" style="edgeStyle=orthogonalEdgeStyle;rounded=0;orthogonalLoop=1;jettySize=auto;html=1;exitX=0.5;exitY=1;exitDx=0;exitDy=0;entryX=0;entryY=0.5;entryDx=0;entryDy=0;" parent="WIyWlLk6GJQsqaUBKTNV-1" source="mFxCMQZOIhEKqkH4UFLB-14" target="WIyWlLk6GJQsqaUBKTNV-7" edge="1">
          <mxGeometry relative="1" as="geometry">
            <mxPoint x="285" y="410" as="sourcePoint"/>
          </mxGeometry>
        </mxCell>
        <mxCell id="mFxCMQZOIhEKqkH4UFLB-5" value="" style="edgeStyle=orthogonalEdgeStyle;rounded=0;orthogonalLoop=1;jettySize=auto;html=1;" parent="WIyWlLk6GJQsqaUBKTNV-1" source="mFxCMQZOIhEKqkH4UFLB-2" target="mFxCMQZOIhEKqkH4UFLB-4" edge="1">
          <mxGeometry relative="1" as="geometry"/>
        </mxCell>
        <mxCell id="mFxCMQZOIhEKqkH4UFLB-2" value="Load 3 in register&amp;nbsp; $t2&amp;nbsp;" style="rounded=1;whiteSpace=wrap;html=1;" parent="WIyWlLk6GJQsqaUBKTNV-1" vertex="1">
          <mxGeometry x="320" y="140" width="120" height="60" as="geometry"/>
        </mxCell>
        <mxCell id="mFxCMQZOIhEKqkH4UFLB-9" value="" style="edgeStyle=orthogonalEdgeStyle;rounded=0;orthogonalLoop=1;jettySize=auto;html=1;" parent="WIyWlLk6GJQsqaUBKTNV-1" source="mFxCMQZOIhEKqkH4UFLB-4" target="mFxCMQZOIhEKqkH4UFLB-8" edge="1">
          <mxGeometry relative="1" as="geometry"/>
        </mxCell>
        <mxCell id="mFxCMQZOIhEKqkH4UFLB-4" value="Test each of the following conditions" style="rounded=1;whiteSpace=wrap;html=1;" parent="WIyWlLk6GJQsqaUBKTNV-1" vertex="1">
          <mxGeometry x="460" y="140" width="120" height="60" as="geometry"/>
        </mxCell>
        <mxCell id="mFxCMQZOIhEKqkH4UFLB-11" value="" style="edgeStyle=orthogonalEdgeStyle;rounded=0;orthogonalLoop=1;jettySize=auto;html=1;" parent="WIyWlLk6GJQsqaUBKTNV-1" source="mFxCMQZOIhEKqkH4UFLB-8" target="mFxCMQZOIhEKqkH4UFLB-10" edge="1">
          <mxGeometry relative="1" as="geometry"/>
        </mxCell>
        <mxCell id="mFxCMQZOIhEKqkH4UFLB-8" value="if f&amp;lt;=g, end program" style="rounded=1;whiteSpace=wrap;html=1;" parent="WIyWlLk6GJQsqaUBKTNV-1" vertex="1">
          <mxGeometry x="600" y="140" width="120" height="60" as="geometry"/>
        </mxCell>
        <mxCell id="mFxCMQZOIhEKqkH4UFLB-13" value="" style="edgeStyle=orthogonalEdgeStyle;rounded=0;orthogonalLoop=1;jettySize=auto;html=1;" parent="WIyWlLk6GJQsqaUBKTNV-1" source="mFxCMQZOIhEKqkH4UFLB-10" target="mFxCMQZOIhEKqkH4UFLB-12" edge="1">
          <mxGeometry relative="1" as="geometry"/>
        </mxCell>
        <mxCell id="mFxCMQZOIhEKqkH4UFLB-10" value="if g&amp;lt;=0, end program" style="rounded=1;whiteSpace=wrap;html=1;" parent="WIyWlLk6GJQsqaUBKTNV-1" vertex="1">
          <mxGeometry x="600" y="210" width="120" height="60" as="geometry"/>
        </mxCell>
        <mxCell id="mFxCMQZOIhEKqkH4UFLB-18" style="edgeStyle=orthogonalEdgeStyle;rounded=0;orthogonalLoop=1;jettySize=auto;html=1;exitX=0;exitY=0.5;exitDx=0;exitDy=0;entryX=1;entryY=0.5;entryDx=0;entryDy=0;" parent="WIyWlLk6GJQsqaUBKTNV-1" source="mFxCMQZOIhEKqkH4UFLB-12" target="mFxCMQZOIhEKqkH4UFLB-6" edge="1">
          <mxGeometry relative="1" as="geometry"/>
        </mxCell>
        <mxCell id="mFxCMQZOIhEKqkH4UFLB-12" value="if f&amp;lt;=3, end program" style="rounded=1;whiteSpace=wrap;html=1;" parent="WIyWlLk6GJQsqaUBKTNV-1" vertex="1">
          <mxGeometry x="600" y="280" width="120" height="60" as="geometry"/>
        </mxCell>
        <mxCell id="FPXWM-zQWJSh7Ym-sCVf-0" value="f-=3" style="rounded=1;whiteSpace=wrap;html=1;" vertex="1" parent="WIyWlLk6GJQsqaUBKTNV-1">
          <mxGeometry x="160" y="50" width="120" height="60" as="geometry"/>
        </mxCell>
        <mxCell id="FPXWM-zQWJSh7Ym-sCVf-1" value="" style="rounded=0;html=1;jettySize=auto;orthogonalLoop=1;fontSize=11;endArrow=block;endFill=0;endSize=8;strokeWidth=1;shadow=0;labelBackgroundColor=none;edgeStyle=orthogonalEdgeStyle;" edge="1" parent="WIyWlLk6GJQsqaUBKTNV-1" source="WIyWlLk6GJQsqaUBKTNV-3" target="FPXWM-zQWJSh7Ym-sCVf-0">
          <mxGeometry relative="1" as="geometry">
            <mxPoint x="220.00000000000023" y="140.0000000000001" as="targetPoint"/>
            <mxPoint x="220.00000000000023" y="40" as="sourcePoint"/>
          </mxGeometry>
        </mxCell>
      </root>
    </mxGraphModel>
  </diagram>
</mxfile>
